<svg width="446" height="208" viewBox="0 0 446 208" fill="none" xmlns="http://www.w3.org/2000/svg">
<g clip-path="url(#clip0_123_415)">
<path d="M18.2216 23.6754C85.099 19.7749 152.395 18.2093 219.355 20.2942C256.54 21.4532 299.647 20.5416 335.01 33.8431C368.034 46.2652 316.004 79.9113 303.212 89.0459C281.947 104.236 156.36 177.416 232.343 202.447C268.316 214.297 314.68 200.443 350.341 193.723C402.9 183.82 457.531 170.602 511.366 174.363C528.462 175.558 573.463 180.409 569.308 205.171C566.304 223.074 543.136 237.621 529.659 247.091C513.341 258.557 450.15 282.874 467.756 310.582C476 323.558 495.174 327.601 509.149 329.168C541.961 332.846 573.204 323.813 605.26 318.634C624.007 315.606 776.587 302.839 758.611 345.896C749.949 366.64 721.001 380.583 702.866 391.462C688.672 399.978 664.515 410.168 657.463 426.568C644.397 456.946 694.254 462.218 711.859 460.975C760.583 457.537 808.015 442.019 856.091 434.146C878.574 430.465 902.843 426.738 925.358 432.071C939.972 435.532 962.084 442.895 960.506 461.343C959.493 473.195 948.662 483.925 940.237 491.112C918.276 509.845 891.441 532.523 891.953 564.552C892.574 603.419 940.933 611.816 970.925 612.176C1028.51 612.866 1087.09 604.397 1144.07 596.989C1192.11 590.744 1240.03 583.54 1287.81 575.587C1295.9 574.242 1303.99 572.884 1312.07 571.46C1320.14 570.037 1307.47 558.451 1301.51 559.503C1215.76 574.625 1129.24 587.317 1042.53 595.324C1011.63 598.177 898.577 619.184 908.603 562.411C911.35 546.857 921.289 532.097 931.787 520.641C944.245 507.05 961.957 498.57 971.266 482.08C992.916 443.725 939.423 421.638 909.687 418.183C863.598 412.826 814.828 427.93 770.204 437.434C746.834 442.411 722.92 448.117 698.958 449.077C692.764 449.326 681.34 450.668 675.953 446.789C665.532 439.285 676.922 428.825 683.404 423.458C701.271 408.664 723.26 399.116 742.261 385.879C754.981 377.017 776.736 361.967 776.698 344.258C776.619 309.267 712.26 303.887 689.09 302.194C658.765 299.978 627.972 301.561 597.929 306.156C564.377 311.288 528.49 324.084 494.379 315.629C460.912 307.333 499.302 285.559 512.295 277.659C530.295 266.715 548.619 255.494 564.268 241.28C589.023 218.792 593.178 193.305 560.426 176.414C519.791 155.458 469.996 160.529 426.406 166.581C375.616 173.634 325.699 186.889 274.694 192.335C263.718 193.507 232.055 199.021 224.792 187.043C218.114 176.025 234.899 160.843 241.695 154.576C269.43 129.01 303.356 111.038 332.885 87.7356C348.082 75.7451 375.062 54.4775 355.444 34.742C336.449 15.6352 299.097 14.285 274.244 11.8049C193.165 3.70996 110.508 6.65206 29.2405 10.5018C23.1683 10.789 17.0956 11.086 11.0266 11.4401C0.845676 12.0342 11.9948 24.0384 18.2216 23.6754Z" fill="url(#paint0_linear_123_415)"/>
</g>
<defs>
<linearGradient id="paint0_linear_123_415" x1="160.388" y1="-3.40597" x2="1314.9" y2="661.838" gradientUnits="userSpaceOnUse">
<stop stop-color="white" stop-opacity="0"/>
<stop offset="0.479722" stop-color="#F37362"/>
<stop offset="0.905" stop-color="white" stop-opacity="0"/>
</linearGradient>
<clipPath id="clip0_123_415">
<rect width="446" height="208" fill="white"/>
</clipPath>
</defs>
</svg>
