<svg width="209" height="30" viewBox="0 0 209 30" fill="none" xmlns="http://www.w3.org/2000/svg">
<path d="M0 26.8646C4.91448 26.8646 8.89841 22.8806 8.89841 17.9662C8.89841 13.0517 4.91448 9.06772 0 9.06772V15.2966C1.47433 15.2966 2.66951 16.4918 2.66951 17.9662C2.66951 19.4405 1.47433 20.6357 0 20.6357V26.8646Z" fill="#F57463"/>
<path d="M29.6614 12.0339C28.1408 11.5522 26.5215 11.2923 24.8414 11.2923C16.0363 11.2923 8.89844 18.4303 8.89844 27.2353C8.89844 28.1191 8.97036 28.9861 9.10862 29.8307H19.0145C18.6609 29.0379 18.4643 28.1596 18.4643 27.2353C18.4643 23.7133 21.3194 20.8581 24.8414 20.8581C26.7664 20.8581 28.4921 21.711 29.6614 23.0595V12.0339Z" fill="#F57463"/>
<path d="M1.56445 0.169281C2.30219 6.84302 7.96024 12.0339 14.8306 12.0339C21.7009 12.0339 27.359 6.84302 28.0967 0.169281H18.5512C17.9619 1.64658 16.5181 2.69049 14.8306 2.69049C13.143 2.69049 11.6993 1.64658 11.1099 0.169281H1.56445Z" fill="#F57463"/>
<path d="M54.4737 4.51077C55.6962 4.51077 56.7342 4.67487 57.5875 5.00308C58.4491 5.32308 59.2368 5.77846 59.9506 6.36923L57.9691 8.75692C57.5014 8.37128 56.9845 8.06769 56.4183 7.84615C55.8521 7.61641 55.2368 7.50154 54.5721 7.50154C53.8583 7.50154 53.206 7.70667 52.6152 8.11692C52.0245 8.51897 51.5527 9.15897 51.1998 10.0369C50.847 10.9067 50.6706 12.039 50.6706 13.4338C50.6706 15.4851 51.0398 16.9785 51.7783 17.9138C52.525 18.841 53.4809 19.3046 54.646 19.3046C55.4993 19.3046 56.2091 19.1446 56.7752 18.8246C57.3414 18.5046 57.8624 18.1559 58.3383 17.7785L60.1721 20.1169C59.5321 20.7487 58.7445 21.2903 57.8091 21.7415C56.8737 22.1928 55.7455 22.4185 54.4245 22.4185C52.8819 22.4185 51.5116 22.0779 50.3137 21.3969C49.1239 20.7077 48.1886 19.6985 47.5075 18.3692C46.8347 17.0318 46.4983 15.3867 46.4983 13.4338C46.4983 11.5303 46.847 9.91385 47.5445 8.58462C48.2501 7.25538 49.206 6.24615 50.4121 5.55692C51.6183 4.85949 52.9721 4.51077 54.4737 4.51077ZM67.8116 8.49846C69.1573 8.49846 70.3019 8.78564 71.2455 9.36C72.1891 9.93436 72.9111 10.7426 73.4116 11.7846C73.9121 12.8185 74.1624 14.0328 74.1624 15.4277C74.1624 17.6103 73.6044 19.321 72.4885 20.56C71.3726 21.799 69.8137 22.4185 67.8116 22.4185C65.8096 22.4185 64.2506 21.8072 63.1347 20.5846C62.0188 19.3621 61.4608 17.6513 61.4608 15.4523C61.4608 14.0656 61.7111 12.8513 62.2116 11.8092C62.7203 10.7672 63.4465 9.95487 64.3901 9.37231C65.3419 8.78974 66.4824 8.49846 67.8116 8.49846ZM67.8116 11.3662C67.0157 11.3662 66.425 11.6944 66.0393 12.3508C65.6619 12.999 65.4732 14.0328 65.4732 15.4523C65.4732 16.8964 65.6619 17.9426 66.0393 18.5908C66.425 19.239 67.0157 19.5631 67.8116 19.5631C68.6075 19.5631 69.1942 19.239 69.5716 18.5908C69.9573 17.9426 70.1501 16.8882 70.1501 15.4277C70.1501 14.0164 69.9573 12.9867 69.5716 12.3385C69.1942 11.6903 68.6075 11.3662 67.8116 11.3662ZM84.3495 3.32923L88.2388 3.73539V22H84.7926L84.5957 20.56C84.2347 21.0687 83.7547 21.5077 83.1557 21.8769C82.5567 22.2379 81.8306 22.4185 80.9772 22.4185C79.8942 22.4185 78.9957 22.1272 78.2819 21.5446C77.5762 20.9621 77.047 20.1497 76.6942 19.1077C76.3495 18.0574 76.1772 16.8308 76.1772 15.4277C76.1772 14.0821 76.3865 12.8882 76.8049 11.8462C77.2234 10.8041 77.8224 9.98769 78.6019 9.39692C79.3813 8.79795 80.3085 8.49846 81.3834 8.49846C82.5567 8.49846 83.5454 8.90051 84.3495 9.70462V3.32923ZM82.4295 11.3415C81.7567 11.3415 81.2152 11.6615 80.8049 12.3015C80.3947 12.9333 80.1895 13.9836 80.1895 15.4523C80.1895 16.5272 80.2757 17.3641 80.448 17.9631C80.6203 18.5538 80.8583 18.9682 81.1619 19.2062C81.4654 19.4441 81.8142 19.5631 82.208 19.5631C82.6429 19.5631 83.0367 19.4277 83.3895 19.1569C83.7506 18.8862 84.0706 18.5169 84.3495 18.0492V12.4123C84.0788 12.0759 83.7916 11.8133 83.488 11.6246C83.1844 11.4359 82.8316 11.3415 82.4295 11.3415ZM97.3183 2.08615C97.9911 2.08615 98.5408 2.29539 98.9675 2.71385C99.3941 3.13231 99.6075 3.65333 99.6075 4.27692C99.6075 4.90051 99.3941 5.42564 98.9675 5.85231C98.5408 6.27077 97.9911 6.48 97.3183 6.48C96.6372 6.48 96.0793 6.27077 95.6444 5.85231C95.2177 5.42564 95.0044 4.90051 95.0044 4.27692C95.0044 3.65333 95.2177 3.13231 95.6444 2.71385C96.0793 2.29539 96.6372 2.08615 97.3183 2.08615ZM99.669 8.92923V19.3415H102.992V22H92.0752V19.3415H95.7798V11.5877H92.1983V8.92923H99.669ZM106.447 22V8.92923H109.844L110.115 10.4431C110.697 9.78667 111.313 9.29846 111.961 8.97846C112.609 8.65846 113.347 8.49846 114.176 8.49846C115.292 8.49846 116.17 8.83897 116.81 9.52C117.45 10.201 117.77 11.161 117.77 12.4V22H113.881V13.52C113.881 12.7159 113.791 12.1579 113.61 11.8462C113.438 11.5262 113.11 11.3662 112.625 11.3662C112.215 11.3662 111.821 11.4974 111.444 11.76C111.075 12.0226 110.705 12.3877 110.336 12.8554V22H106.447ZM132.819 6.83692L133.73 9.69231C133.27 9.87282 132.733 10.0041 132.117 10.0862C131.502 10.1682 130.784 10.2092 129.963 10.2092C130.784 10.5621 131.407 11.001 131.834 11.5262C132.269 12.0431 132.486 12.7241 132.486 13.5692C132.486 14.4144 132.261 15.1692 131.81 15.8338C131.358 16.4903 130.718 17.0072 129.89 17.3846C129.061 17.7621 128.08 17.9508 126.948 17.9508C126.406 17.9508 125.902 17.9015 125.434 17.8031C125.295 17.8769 125.188 17.9836 125.114 18.1231C125.04 18.2626 125.003 18.4062 125.003 18.5538C125.003 18.759 125.085 18.9436 125.25 19.1077C125.422 19.2718 125.82 19.3538 126.443 19.3538H128.585C129.602 19.3538 130.48 19.5179 131.219 19.8462C131.965 20.1744 132.544 20.6215 132.954 21.1877C133.364 21.7538 133.57 22.4021 133.57 23.1323C133.57 24.4697 132.983 25.5241 131.81 26.2954C130.636 27.0667 128.893 27.4523 126.579 27.4523C124.905 27.4523 123.608 27.28 122.69 26.9354C121.779 26.599 121.143 26.1149 120.782 25.4831C120.429 24.8595 120.253 24.1169 120.253 23.2554H123.699C123.699 23.6328 123.773 23.9405 123.92 24.1785C124.076 24.4246 124.367 24.6051 124.794 24.72C125.229 24.8349 125.857 24.8923 126.677 24.8923C127.506 24.8923 128.138 24.8267 128.573 24.6954C129.007 24.5641 129.303 24.3836 129.459 24.1538C129.623 23.9323 129.705 23.6821 129.705 23.4031C129.705 23.0174 129.553 22.7056 129.25 22.4677C128.946 22.2297 128.466 22.1108 127.81 22.1108H125.73C124.318 22.1108 123.293 21.8523 122.653 21.3354C122.013 20.8103 121.693 20.199 121.693 19.5015C121.693 19.0174 121.82 18.5579 122.074 18.1231C122.337 17.6882 122.702 17.3231 123.17 17.0277C122.333 16.5846 121.734 16.0636 121.373 15.4646C121.012 14.8574 120.831 14.1313 120.831 13.2862C120.831 12.3015 121.081 11.4564 121.582 10.7508C122.082 10.0369 122.772 9.48718 123.65 9.10154C124.536 8.7159 125.545 8.52308 126.677 8.52308C127.654 8.53949 128.503 8.47385 129.225 8.32615C129.947 8.17026 130.595 7.96103 131.17 7.69846C131.744 7.42769 132.294 7.14051 132.819 6.83692ZM126.776 11.0462C126.16 11.0462 125.672 11.2431 125.311 11.6369C124.95 12.0226 124.77 12.5559 124.77 13.2369C124.77 13.959 124.954 14.5128 125.323 14.8985C125.693 15.2841 126.177 15.4769 126.776 15.4769C128.105 15.4769 128.77 14.7138 128.77 13.1877C128.77 11.76 128.105 11.0462 126.776 11.0462ZM157.833 4.51077C159.056 4.51077 160.094 4.67487 160.947 5.00308C161.808 5.32308 162.596 5.77846 163.31 6.36923L161.328 8.75692C160.861 8.37128 160.344 8.06769 159.778 7.84615C159.212 7.61641 158.596 7.50154 157.932 7.50154C157.218 7.50154 156.565 7.70667 155.975 8.11692C155.384 8.51897 154.912 9.15897 154.559 10.0369C154.206 10.9067 154.03 12.039 154.03 13.4338C154.03 15.4851 154.399 16.9785 155.138 17.9138C155.884 18.841 156.84 19.3046 158.005 19.3046C158.859 19.3046 159.568 19.1446 160.135 18.8246C160.701 18.5046 161.222 18.1559 161.698 17.7785L163.532 20.1169C162.892 20.7487 162.104 21.2903 161.168 21.7415C160.233 22.1928 159.105 22.4185 157.784 22.4185C156.241 22.4185 154.871 22.0779 153.673 21.3969C152.483 20.7077 151.548 19.6985 150.867 18.3692C150.194 17.0318 149.858 15.3867 149.858 13.4338C149.858 11.5303 150.206 9.91385 150.904 8.58462C151.609 7.25538 152.565 6.24615 153.772 5.55692C154.978 4.85949 156.332 4.51077 157.833 4.51077ZM171.171 8.49846C172.517 8.49846 173.661 8.78564 174.605 9.36C175.548 9.93436 176.27 10.7426 176.771 11.7846C177.272 12.8185 177.522 14.0328 177.522 15.4277C177.522 17.6103 176.964 19.321 175.848 20.56C174.732 21.799 173.173 22.4185 171.171 22.4185C169.169 22.4185 167.61 21.8072 166.494 20.5846C165.378 19.3621 164.82 17.6513 164.82 15.4523C164.82 14.0656 165.07 12.8513 165.571 11.8092C166.08 10.7672 166.806 9.95487 167.749 9.37231C168.701 8.78974 169.842 8.49846 171.171 8.49846ZM171.171 11.3662C170.375 11.3662 169.784 11.6944 169.399 12.3508C169.021 12.999 168.833 14.0328 168.833 15.4523C168.833 16.8964 169.021 17.9426 169.399 18.5908C169.784 19.239 170.375 19.5631 171.171 19.5631C171.967 19.5631 172.554 19.239 172.931 18.5908C173.317 17.9426 173.509 16.8882 173.509 15.4277C173.509 14.0164 173.317 12.9867 172.931 12.3385C172.554 11.6903 171.967 11.3662 171.171 11.3662ZM180.275 22V8.92923H183.672L183.943 10.4431C184.525 9.78667 185.141 9.29846 185.789 8.97846C186.437 8.65846 187.176 8.49846 188.004 8.49846C189.12 8.49846 189.998 8.83897 190.638 9.52C191.278 10.201 191.598 11.161 191.598 12.4V22H187.709V13.52C187.709 12.7159 187.619 12.1579 187.438 11.8462C187.266 11.5262 186.938 11.3662 186.454 11.3662C186.043 11.3662 185.649 11.4974 185.272 11.76C184.903 12.0226 184.534 12.3877 184.164 12.8554V22H180.275ZM203.361 3.32923C204.312 3.32923 205.154 3.40718 205.884 3.56308C206.614 3.71077 207.266 3.90769 207.841 4.15385L206.77 6.68923C206.319 6.51692 205.855 6.39385 205.379 6.32C204.903 6.23795 204.431 6.19692 203.964 6.19692C203.192 6.19692 202.639 6.33641 202.302 6.61539C201.974 6.89436 201.81 7.35795 201.81 8.00615V9.75385H206.068L205.638 12.4492H201.81V22H197.945V12.4492H195.201V9.75385H197.945V7.85846C197.945 6.99692 198.15 6.22564 198.561 5.54462C198.971 4.86359 199.578 4.32615 200.382 3.93231C201.186 3.53026 202.179 3.32923 203.361 3.32923Z" fill="white"/>
</svg>
