<svg width="30" height="30" viewBox="0 0 30 30" fill="none" xmlns="http://www.w3.org/2000/svg">
<path d="M0 26.8646C4.91448 26.8646 8.89841 22.8806 8.89841 17.9662C8.89841 13.0517 4.91448 9.06772 0 9.06772V15.2966C1.47433 15.2966 2.66951 16.4918 2.66951 17.9662C2.66951 19.4405 1.47433 20.6357 0 20.6357V26.8646Z" fill="#F57463"/>
<path d="M29.6614 12.0339C28.1408 11.5522 26.5215 11.2923 24.8414 11.2923C16.0363 11.2923 8.89844 18.4303 8.89844 27.2353C8.89844 28.1191 8.97036 28.9861 9.10862 29.8307H19.0145C18.6609 29.0379 18.4643 28.1596 18.4643 27.2353C18.4643 23.7133 21.3194 20.8581 24.8414 20.8581C26.7664 20.8581 28.4921 21.711 29.6614 23.0595V12.0339Z" fill="#F57463"/>
<path d="M1.56445 0.169281C2.30219 6.84302 7.96024 12.0339 14.8306 12.0339C21.7009 12.0339 27.359 6.84302 28.0967 0.169281H18.5512C17.9619 1.64658 16.5181 2.69049 14.8306 2.69049C13.143 2.69049 11.6993 1.64658 11.1099 0.169281H1.56445Z" fill="#F57463"/>
</svg>
